<svg width="20" height="20" xmlns="http://www.w3.org/2000/svg"><path d="M10 2H2.25A2.25 2.25 0 000 4.25v13.5A2.25 2.25 0 002.25 20h13.5A2.25 2.25 0 0018 17.75V10h-1v7.75c0 .69-.56 1.25-1.25 1.25H2.25C1.56 19 1 18.44 1 17.75V4.25C1 3.56 1.56 3 2.25 3H10V2zm0 0H2.25A2.25 2.25 0 000 4.25v13.5A2.25 2.25 0 002.25 20h13.5A2.25 2.25 0 0018 17.75V10h-1v7.75c0 .69-.56 1.25-1.25 1.25H2.25C1.56 19 1 18.44 1 17.75V4.25C1 3.56 1.56 3 2.25 3H10V2zm6.269 2.976l-1.414-1.414-8.53 8.53-.646 2.06 2.06-.647 8.53-8.53zm.707-.707l1.318-1.319-1.414-1.414-1.318 1.319 1.414 1.414zm.611-3.44l1.414 1.414a1 1 0 010 1.414L8.273 14.386l-3.208 1.006a.5.5 0 01-.626-.627l1.006-3.207L16.173.829a1 1 0 011.414 0z" fill="#000" fill-rule="nonzero"/></svg>
